<svg xmlns="http://www.w3.org/2000/svg" xmlns:xlink="http://www.w3.org/1999/xlink" version="1.1" width="375" height="375" viewBox="0 0 375 375">
<defs>
<clipPath id="clip_2">
<path transform="matrix(.24,0,0,.24,0,0)" d="M319.87388 319.87388H1241.7489V1241.7489H319.87388Z" clip-rule="evenodd"/>
</clipPath>
</defs>
<g clip-path="url(#clip_2)">
<path transform="matrix(.30756835,0,0,.30756835,76.76973,76.76973)" d="M720 2.9V330.3C677.5 320.9 633.5 316 588.2 316 507.5 316 430.5 331.6 360 360 388.4 289.5 404 212.5 404 131.8 404 87.600009 399.3 44.4 390.3 2.9000092L720 2.9Z" fill="#e7712d" fill-rule="evenodd"/>
<path transform="matrix(.30756835,0,0,.30756835,76.76973,76.76973)" d="M717.1 720H389.7C399.1 677.5 404 633.5 404 588.2 404 507.5 388.4 430.5 360 360 430.5 388.4 507.5 404 588.2 404 632.4 404 675.60006 399.3 717.1 390.3V720Z" fill="#c85711" fill-rule="evenodd"/>
<path transform="matrix(.30756835,0,0,.30756835,76.76973,76.76973)" d="M0 717.1V389.7C42.5 399 86.5 404 131.8 404 212.5 404 289.5 388.4 360 360 331.6 430.5 316 507.5 316 588.2 316 632.5 320.6 675.60006 329.7 717.1H0Z" fill="#e7712d" fill-rule="evenodd"/>
<path transform="matrix(.30756835,0,0,.30756835,76.76973,76.76973)" d="M2.9 0H330.3C320.9 42.5 316 86.5 316 131.8 316 212.5 331.6 289.5 360 360 289.5 331.6 212.5 316 131.8 316 87.5 316 44.4 320.7 2.9000092 329.7L2.9 0Z" fill="#c85711" fill-rule="evenodd"/>
</g>
</svg>
